<!DOCTYPE svg PUBLIC "-//W3C//DTD SVG 1.1//EN" "http://www.w3.org/Graphics/SVG/1.1/DTD/svg11.dtd">
<!-- Uploaded to: SVG Repo, www.svgrepo.com, Transformed by: SVG Repo Mixer Tools -->
<svg fill="#000000" width="64px" height="64px" viewBox="0 0 24 24" id="acrobatic" data-name="Line Color" xmlns="http://www.w3.org/2000/svg" class="icon line-color">
<g id="SVGRepo_bgCarrier" stroke-width="0"/>
<g id="SVGRepo_tracerCarrier" stroke-linecap="round" stroke-linejoin="round"/>
<g id="SVGRepo_iconCarrier">
<path id="primary" d="M13.2,3,6.65,5.45A1,1,0,0,0,6.29,7.1L8.2,9,11,8.05A1.13,1.13,0,0,1,11.36,8h4.06a1,1,0,0,1,.67.26L18,10" style="fill: none; stroke: #000000; stroke-linecap: round; stroke-linejoin: round; stroke-width: 2;"/>
<path id="secondary-upstroke" d="M8.1,9.34,7.92,10a4.21,4.21,0,0,0,2.86,5.17h0" style="fill: none; stroke: #2ca9bc; stroke-linecap: round; stroke-linejoin: round; stroke-width: 2;"/>
<path id="primary-2" data-name="primary" d="M13,21H12a1,1,0,0,1-1-1V14" style="fill: none; stroke: #000000; stroke-linecap: round; stroke-linejoin: round; stroke-width: 2;"/>
<circle id="primary-3" data-name="primary" cx="13" cy="14" r="2" style="fill: none; stroke: #000000; stroke-linecap: round; stroke-linejoin: round; stroke-width: 2;"/>
</g>
</svg>