<!DOCTYPE svg PUBLIC "-//W3C//DTD SVG 1.1//EN" "http://www.w3.org/Graphics/SVG/1.1/DTD/svg11.dtd">
<!-- Uploaded to: SVG Repo, www.svgrepo.com, Transformed by: SVG Repo Mixer Tools -->
<svg version="1.1" id="Layer_1" xmlns="http://www.w3.org/2000/svg" xmlns:xlink="http://www.w3.org/1999/xlink" viewBox="0 0 497.6 497.6" xml:space="preserve" width="64px" height="64px" fill="#000000">
<g id="SVGRepo_bgCarrier" stroke-width="0"/>
<g id="SVGRepo_tracerCarrier" stroke-linecap="round" stroke-linejoin="round"/>
<g id="SVGRepo_iconCarrier"> <circle style="fill:#F2AD51;" cx="248.8" cy="213.6" r="213.6"/> <path style="fill:#FFC166;" d="M400,364.8c-83.2,83.2-219.2,83.2-302.4,0s-83.2-219.2,0-302.4"/> <path style="fill:#6CAD27;" d="M496.8,497.6c-36.8-78.4-142.4-55.2-248-55.2s-211.2-23.2-248,55.2H496.8z"/> <path style="fill:#A0E252;" d="M446.4,497.6c-31.2-78.4-108-134.4-197.6-134.4s-166.4,56-197.6,134.4H446.4z"/> <path style="fill:#7DC431;" d="M446.4,497.6c-31.2-78.4-108-110.4-197.6-110.4s-166.4,32-197.6,110.4H446.4z"/> <polygon style="fill:#6FAF25;" points="313.6,497.6 184,497.6 215.2,420 282.4,420 "/> <g> <polygon style="fill:#D65483;" points="151.2,313.6 127.2,288.8 84.8,331.2 127.2,373.6 151.2,349.6 "/> <rect x="65.663" y="301.404" transform="matrix(-0.7069 0.7073 -0.7073 -0.7069 397.6908 498.0117)" style="fill:#D65483;" width="59.999" height="59.999"/> <polygon style="fill:#D65483;" points="64,288.8 39.2,313.6 39.2,348.8 64,373.6 106.4,331.2 "/> </g> <rect x="88.8" y="373.6" style="fill:#028952;" width="13.6" height="101.6"/> <polyline style="fill:#036D3F;" points="88.8,373.6 101.6,373.6 101.6,475.2 "/> <path id="SVGCleanerId_0" style="fill:#EA7D9F;" d="M140.8,322.4l-15.2-15.2l-15.2,15.2l-15.2-15.2L80,322.4l-15.2-15.2l-15.2,15.2 L39.2,312v35.2c0,29.6,24,53.6,53.6,53.6h4.8c29.6,0,53.6-24,53.6-53.6V312L140.8,322.4z"/> <g> <path id="SVGCleanerId_0_1_" style="fill:#EA7D9F;" d="M140.8,322.4l-15.2-15.2l-15.2,15.2l-15.2-15.2L80,322.4l-15.2-15.2 l-15.2,15.2L39.2,312v35.2c0,29.6,24,53.6,53.6,53.6h4.8c29.6,0,53.6-24,53.6-53.6V312L140.8,322.4z"/> </g> <g> <rect x="113.937" y="311.78" transform="matrix(0.7066 -0.7076 0.7076 0.7066 -186.8231 178.5793)" style="fill:#F4AEC7;" width="16" height="5.6"/> <rect x="83.234" y="311.917" transform="matrix(0.7066 -0.7076 0.7076 0.7066 -195.9281 156.8936)" style="fill:#F4AEC7;" width="16" height="5.6"/> <polygon style="fill:#F4AEC7;" points="148.8,322.4 151.2,320 151.2,312 144.8,318.4 "/> <path style="fill:#F4AEC7;" d="M47.2,347.2V320l-8-8v35.2c0,29.6,24,53.6,53.6,53.6h4.8c0.8,0,0.8,0,1.6,0 C70.4,400,47.2,376,47.2,347.2z"/> <rect x="53.111" y="311.517" transform="matrix(0.7071 -0.7071 0.7071 0.7071 -204.3564 135.2732)" style="fill:#F4AEC7;" width="16" height="5.6"/> </g> <g> <polygon style="fill:#D65483;" points="458.4,313.6 433.6,288.8 391.2,331.2 433.6,373.6 458.4,349.6 "/> <rect x="372.814" y="301.3" transform="matrix(-0.707 0.7072 -0.7072 -0.707 921.9025 280.6584)" style="fill:#D65483;" width="59.999" height="59.999"/> <polygon style="fill:#D65483;" points="371.2,288.8 346.4,313.6 346.4,348.8 371.2,373.6 413.6,331.2 "/> </g> <rect x="396" y="373.6" style="fill:#028952;" width="13.6" height="101.6"/> <polyline style="fill:#036D3F;" points="396,373.6 408.8,373.6 408.8,475.2 "/> <path id="SVGCleanerId_1" style="fill:#EA7D9F;" d="M448,322.4l-15.2-15.2l-15.2,15.2l-15.2-15.2l-15.2,15.2L372,307.2l-15.2,15.2 L346.4,312v35.2c0,29.6,24,53.6,53.6,53.6h4.8c29.6,0,53.6-24,53.6-53.6V312L448,322.4z"/> <g> <path id="SVGCleanerId_1_1_" style="fill:#EA7D9F;" d="M448,322.4l-15.2-15.2l-15.2,15.2l-15.2-15.2l-15.2,15.2L372,307.2 l-15.2,15.2L346.4,312v35.2c0,29.6,24,53.6,53.6,53.6h4.8c29.6,0,53.6-24,53.6-53.6V312L448,322.4z"/> </g> <g> <rect x="420.973" y="311.895" transform="matrix(0.7071 -0.7071 0.7071 0.7071 -96.8799 395.5014)" style="fill:#F4AEC7;" width="16" height="5.6"/> <rect x="390.836" y="311.429" transform="matrix(0.7066 -0.7076 0.7076 0.7066 -105.335 374.4117)" style="fill:#F4AEC7;" width="16" height="5.6"/> <polygon style="fill:#F4AEC7;" points="456,322.4 458.4,320 458.4,312 452,318.4 "/> <path style="fill:#F4AEC7;" d="M354.4,347.2V320l-8-8v35.2c0,29.6,24,53.6,53.6,53.6h4.8c0.8,0,0.8,0,1.6,0 C377.6,400,354.4,376,354.4,347.2z"/> <rect x="360.028" y="311.563" transform="matrix(0.7069 -0.7074 0.7074 0.7069 -114.4816 352.4806)" style="fill:#F4AEC7;" width="16.001" height="5.6"/> </g> <path style="fill:#036D3F;" d="M254.4,462.4c0,4-3.2,7.2-7.2,7.2l0,0c-4,0-7.2-3.2-7.2-7.2V148.8c0-4,3.2-7.2,7.2-7.2l0,0 c4,0,7.2,3.2,7.2,7.2V462.4z"/> <path style="fill:#F283B1;" d="M276,41.6c0,36.8-12.8,76.8-28.8,76.8s-28.8-40-28.8-76.8S231.2,0,247.2,0 C263.2,0.8,276,4.8,276,41.6z"/> <path style="fill:#EF6597;" d="M247.2,0.8c16,0,28.8,4.8,28.8,41.6s-12.8,76.8-28.8,76.8"/> <path style="fill:#F283B1;" d="M218.4,268.8c0-36.8,12.8-76.8,28.8-76.8s28.8,40,28.8,76.8s-12.8,41.6-28.8,41.6 C231.2,310.4,218.4,305.6,218.4,268.8z"/> <path style="fill:#EF6597;" d="M247.2,310.4c-16,0-28.8-4.8-28.8-41.6c0-36.8,12.8-76.8,28.8-76.8"/> <path style="fill:#F283B1;" d="M360.8,184c-36.8,0-76.8-12.8-76.8-28.8s40-28.8,76.8-28.8s41.6,12.8,41.6,28.8S397.6,184,360.8,184z "/> <path style="fill:#EF6597;" d="M402.4,155.2c0,16-4.8,28.8-41.6,28.8S284,171.2,284,155.2"/> <path style="fill:#F283B1;" d="M133.6,127.2c36.8,0,76.8,12.8,76.8,28.8s-40,28.8-76.8,28.8S92,172,92,156 C92,140,96.8,127.2,133.6,127.2z"/> <path style="fill:#EF6597;" d="M92,155.2c0-16,4.8-28.8,41.6-28.8c36.8,0,76.8,12.8,76.8,28.8"/> <path style="fill:#F283B1;" d="M348,95.2c-26.4,25.6-63.2,45.6-74.4,34.4c-11.2-11.2,8-48.8,34.4-74.4c25.6-25.6,38.4-20,49.6-8.8 C368,56.8,373.6,68.8,348,95.2z"/> <path style="fill:#EF6597;" d="M356.8,45.6c11.2,11.2,16.8,23.2-8.8,49.6c-26.4,25.6-63.2,45.6-74.4,34.4"/> <path style="fill:#F283B1;" d="M146.4,216c26.4-25.6,63.2-45.6,74.4-34.4c11.2,11.2-8,48.8-34.4,74.4s-38.4,20-49.6,8.8 C126.4,253.6,120.8,241.6,146.4,216z"/> <path style="fill:#EF6597;" d="M137.6,264.8c-11.2-11.2-16.8-23.2,8.8-49.6c26.4-25.6,63.2-45.6,74.4-34.4"/> <path style="fill:#F283B1;" d="M307.2,256c-25.6-26.4-45.6-63.2-34.4-74.4s48.8,8,74.4,34.4s20,38.4,8.8,49.6 C345.6,276,333.6,282.4,307.2,256z"/> <path style="fill:#EF6597;" d="M356.8,264.8c-11.2,11.2-23.2,16.8-49.6-8.8c-25.6-26.4-45.6-63.2-34.4-74.4"/> <path style="fill:#F283B1;" d="M187.2,55.2c25.6,25.6,45.6,63.2,34.4,74.4c-11.2,11.2-48.8-8-74.4-34.4 c-26.4-26.4-20.8-38.4-9.6-49.6C148.8,34.4,160.8,28.8,187.2,55.2z"/> <path style="fill:#EF6597;" d="M137.6,45.6c11.2-11.2,23.2-16.8,49.6,8.8c25.6,25.6,45.6,63.2,34.4,74.4"/> <circle style="fill:#F7C90B;" cx="247.2" cy="155.2" r="48"/> <path style="fill:#F9A908;" d="M281.6,121.6c18.4,19.2,18.4,49.6,0,68c-19.2,19.2-49.6,19.2-68,0"/> <g> <path style="fill:#036D3F;" d="M252,401.6c0,0-12.8-52.8-46.4-64.8S176,297.6,176,297.6s-38.4,80,19.2,136.8 c45.6,44.8,52.8,24,52.8,24L252,401.6z"/> <path style="fill:#036D3F;" d="M242.4,401.6c0,0,12.8-52.8,46.4-64.8s29.6-39.2,29.6-39.2s38.4,80-19.2,136.8 c-45.6,44.8-52.8,24-52.8,24L242.4,401.6z"/> </g> </g>
</svg>