<!DOCTYPE svg PUBLIC "-//W3C//DTD SVG 1.1//EN" "http://www.w3.org/Graphics/SVG/1.1/DTD/svg11.dtd">
<!-- Uploaded to: SVG Repo, www.svgrepo.com, Transformed by: SVG Repo Mixer Tools -->
<svg height="64px" width="64px" version="1.1" id="Layer_1" xmlns="http://www.w3.org/2000/svg" xmlns:xlink="http://www.w3.org/1999/xlink" viewBox="0 0 512 512" xml:space="preserve" fill="#000000">
<g id="SVGRepo_bgCarrier" stroke-width="0"/>
<g id="SVGRepo_tracerCarrier" stroke-linecap="round" stroke-linejoin="round"/>
<g id="SVGRepo_iconCarrier"> <polygon style="fill:#FFA850;" points="503.827,256 486.942,341.514 25.057,341.514 8.172,256 8.172,8.172 503.827,8.172 "/> <path style="fill:#D3552B;" d="M255.999,96.41v297.393c82.123,0,148.697-66.574,148.697-148.697S338.122,96.41,255.999,96.41z"/> <path style="fill:#E86C16;" d="M372.015,245.106c0-82.123-51.943-148.697-116.016-148.697c-82.123,0-148.697,66.574-148.697,148.697 s66.574,148.697,148.697,148.697C320.073,393.803,372.015,327.229,372.015,245.106z"/> <path style="fill:#FECB69;" d="M503.827,256c-8.925,18.377-27.764,31.047-49.566,31.047l-32.681,108.391l32.681,108.391h49.566V256z "/> <path style="fill:#FFE0A2;" d="M404.696,256c-8.924,18.376-27.764,31.047-49.566,31.047s-40.642-12.67-49.566-31.047 c-8.924,18.376-27.764,31.047-49.566,31.047s-40.642-12.67-49.566-31.047c-8.924,18.376-27.764,31.047-49.566,31.047 s-40.642-12.67-49.566-31.047c-8.924,18.376-27.764,31.047-49.566,31.047S17.097,274.376,8.172,256v247.828h446.09V287.046 C432.459,287.046,413.62,274.376,404.696,256z"/> <g> <path style="fill:#FFFFFF;" d="M165.038,360.578h-16.34c-4.512,0-8.17-3.657-8.17-8.17c0-4.513,3.658-8.17,8.17-8.17h16.34 c4.512,0,8.17,3.657,8.17,8.17C173.209,356.921,169.551,360.578,165.038,360.578z"/> <path style="fill:#FFFFFF;" d="M412.866,458.619h-16.34c-4.512,0-8.17-3.657-8.17-8.17c0-4.513,3.658-8.17,8.17-8.17h16.34 c4.512,0,8.17,3.657,8.17,8.17C421.036,454.962,417.378,458.619,412.866,458.619z"/> <path style="fill:#FFFFFF;" d="M462.432,425.939h-16.34c-4.512,0-8.17-3.657-8.17-8.17c0-4.513,3.658-8.17,8.17-8.17h16.34 c4.512,0,8.17,3.657,8.17,8.17C470.602,422.282,466.944,425.939,462.432,425.939z"/> <path style="fill:#FFFFFF;" d="M363.301,393.258h-16.34c-4.512,0-8.17-3.657-8.17-8.17c0-4.513,3.658-8.17,8.17-8.17h16.34 c4.512,0,8.17,3.657,8.17,8.17C371.471,389.601,367.813,393.258,363.301,393.258z"/> <path style="fill:#FFFFFF;" d="M65.907,393.258h-16.34c-4.512,0-8.17-3.657-8.17-8.17c0-4.513,3.658-8.17,8.17-8.17h16.34 c4.512,0,8.17,3.657,8.17,8.17C74.077,389.601,70.419,393.258,65.907,393.258z"/> </g> <path d="M507.396,248.651c-4.06-1.974-8.948-0.28-10.919,3.78c-7.921,16.313-24.098,26.445-42.216,26.445 s-34.294-10.133-42.216-26.445c-1.367-2.814-4.221-4.601-7.35-4.601s-5.983,1.788-7.35,4.601 c-7.922,16.313-24.099,26.445-42.216,26.445s-34.294-10.133-42.216-26.445c-1.367-2.814-4.221-4.601-7.35-4.601 s-5.983,1.788-7.35,4.601c-7.922,16.313-24.099,26.445-42.216,26.445s-34.294-10.133-42.216-26.445 c-1.367-2.814-4.221-4.601-7.35-4.601s-5.983,1.788-7.35,4.601c-7.922,16.313-24.099,26.445-42.216,26.445 s-34.294-10.133-42.216-26.445c-1.367-2.814-4.221-4.601-7.35-4.601s-5.983,1.788-7.35,4.601 c-7.922,16.313-24.099,26.445-42.216,26.445c-18.118,0-34.295-10.133-42.216-26.445c-1.971-4.059-6.86-5.75-10.919-3.78 c-4.059,1.97-5.752,6.859-3.78,10.918c10.516,21.655,32.857,35.648,56.915,35.648c19.409,0,37.699-9.106,49.566-23.996 c11.866,14.89,30.157,23.996,49.566,23.996s37.699-9.106,49.566-23.996c11.866,14.89,30.157,23.996,49.566,23.996 s37.699-9.106,49.566-23.996c11.866,14.89,30.157,23.996,49.566,23.996c19.409,0,37.699-9.106,49.566-23.996 c11.866,14.89,30.157,23.996,49.566,23.996c24.058,0,46.399-13.993,56.915-35.648C513.148,255.51,511.455,250.621,507.396,248.651z"/> <path d="M107.708,231.403c4.47,0.651,8.616-2.431,9.27-6.897c10.039-68.37,69.806-119.927,139.02-119.927 s128.98,51.557,139.02,119.927c0.596,4.062,4.086,6.984,8.073,6.984c0.394,0,0.795-0.028,1.197-0.087 c4.464-0.657,7.552-4.806,6.897-9.271c-5.415-36.879-23.955-70.741-52.202-95.35c-28.529-24.854-65.104-38.542-102.985-38.542 s-74.456,13.688-102.985,38.542c-28.247,24.608-46.787,58.471-52.202,95.35C100.157,226.597,103.244,230.746,107.708,231.403z"/> </g>
</svg>